<mxfile host="Electron" agent="Mozilla/5.0 (X11; Linux x86_64) AppleWebKit/537.36 (KHTML, like Gecko) draw.io/26.0.4 Chrome/128.0.6613.186 Electron/32.2.5 Safari/537.36" version="26.0.4">
  <diagram name="Page-1" id="jmphFXXFoQsm0DjEUh12">
    <mxGraphModel dx="1114" dy="1198" grid="1" gridSize="10" guides="1" tooltips="1" connect="1" arrows="1" fold="1" page="1" pageScale="1" pageWidth="850" pageHeight="1100" math="0" shadow="0">
      <root>
        <mxCell id="0" />
        <mxCell id="1" parent="0" />
        <mxCell id="JMT3TiJlHK_bjwa4Ftxb-30" value="2" style="text;html=1;align=center;verticalAlign=middle;resizable=0;points=[];autosize=1;strokeColor=#d79b00;fillColor=#ffe6cc;" parent="1" vertex="1">
          <mxGeometry x="1060" y="520" width="30" height="30" as="geometry" />
        </mxCell>
        <mxCell id="JMT3TiJlHK_bjwa4Ftxb-31" value="3" style="text;html=1;align=center;verticalAlign=middle;resizable=0;points=[];autosize=1;strokeColor=#d79b00;fillColor=#ffe6cc;" parent="1" vertex="1">
          <mxGeometry x="890" y="790" width="30" height="30" as="geometry" />
        </mxCell>
        <mxCell id="JMT3TiJlHK_bjwa4Ftxb-32" value="4" style="text;html=1;align=center;verticalAlign=middle;resizable=0;points=[];autosize=1;strokeColor=#d79b00;fillColor=#ffe6cc;" parent="1" vertex="1">
          <mxGeometry x="510" y="565" width="30" height="30" as="geometry" />
        </mxCell>
        <mxCell id="JMT3TiJlHK_bjwa4Ftxb-33" value="5" style="text;html=1;align=center;verticalAlign=middle;resizable=0;points=[];autosize=1;strokeColor=#d79b00;fillColor=#ffe6cc;" parent="1" vertex="1">
          <mxGeometry x="210" y="490" width="30" height="30" as="geometry" />
        </mxCell>
        <mxCell id="JMT3TiJlHK_bjwa4Ftxb-1" value="Corporate data center" style="points=[[0,0],[0.25,0],[0.5,0],[0.75,0],[1,0],[1,0.25],[1,0.5],[1,0.75],[1,1],[0.75,1],[0.5,1],[0.25,1],[0,1],[0,0.75],[0,0.5],[0,0.25]];outlineConnect=0;gradientColor=none;html=1;whiteSpace=wrap;fontSize=12;fontStyle=0;container=1;pointerEvents=0;collapsible=0;recursiveResize=0;shape=mxgraph.aws4.group;grIcon=mxgraph.aws4.group_corporate_data_center;strokeColor=#7D8998;fillColor=none;verticalAlign=top;align=left;spacingLeft=30;fontColor=#5A6C86;dashed=0;" parent="1" vertex="1">
          <mxGeometry x="40" y="308" width="246.5" height="422" as="geometry" />
        </mxCell>
        <mxCell id="JMT3TiJlHK_bjwa4Ftxb-14" style="edgeStyle=orthogonalEdgeStyle;rounded=0;orthogonalLoop=1;jettySize=auto;html=1;" parent="JMT3TiJlHK_bjwa4Ftxb-1" source="JMT3TiJlHK_bjwa4Ftxb-11" target="JMT3TiJlHK_bjwa4Ftxb-12" edge="1">
          <mxGeometry relative="1" as="geometry" />
        </mxCell>
        <mxCell id="JMT3TiJlHK_bjwa4Ftxb-15" style="edgeStyle=orthogonalEdgeStyle;rounded=0;orthogonalLoop=1;jettySize=auto;html=1;strokeWidth=3;" parent="JMT3TiJlHK_bjwa4Ftxb-1" source="JMT3TiJlHK_bjwa4Ftxb-12" target="JMT3TiJlHK_bjwa4Ftxb-13" edge="1">
          <mxGeometry relative="1" as="geometry" />
        </mxCell>
        <mxCell id="JMT3TiJlHK_bjwa4Ftxb-12" value="DNS&lt;div&gt;Resolver&lt;/div&gt;" style="sketch=0;outlineConnect=0;fontColor=#232F3E;gradientColor=none;fillColor=#232F3D;strokeColor=none;dashed=0;verticalLabelPosition=top;verticalAlign=bottom;align=center;html=1;fontSize=12;fontStyle=0;aspect=fixed;pointerEvents=1;shape=mxgraph.aws4.traditional_server;labelPosition=center;" parent="JMT3TiJlHK_bjwa4Ftxb-1" vertex="1">
          <mxGeometry x="116.5" y="121" width="45" height="78" as="geometry" />
        </mxCell>
        <mxCell id="JMT3TiJlHK_bjwa4Ftxb-13" value="DNS&lt;div&gt;Server&lt;/div&gt;" style="sketch=0;outlineConnect=0;fontColor=#232F3E;gradientColor=none;fillColor=#232F3D;strokeColor=none;dashed=0;verticalLabelPosition=top;verticalAlign=bottom;align=center;html=1;fontSize=12;fontStyle=0;aspect=fixed;pointerEvents=1;shape=mxgraph.aws4.traditional_server;labelPosition=center;" parent="JMT3TiJlHK_bjwa4Ftxb-1" vertex="1">
          <mxGeometry x="20" y="121" width="45" height="78" as="geometry" />
        </mxCell>
        <mxCell id="JMT3TiJlHK_bjwa4Ftxb-11" value="Client Computer" style="sketch=0;outlineConnect=0;fontColor=#232F3E;gradientColor=none;fillColor=#232F3D;strokeColor=none;dashed=0;verticalLabelPosition=bottom;verticalAlign=top;align=center;html=1;fontSize=12;fontStyle=0;aspect=fixed;pointerEvents=1;shape=mxgraph.aws4.client;" parent="JMT3TiJlHK_bjwa4Ftxb-1" vertex="1">
          <mxGeometry x="100" y="251" width="78" height="76" as="geometry" />
        </mxCell>
        <mxCell id="JMT3TiJlHK_bjwa4Ftxb-24" style="edgeStyle=orthogonalEdgeStyle;rounded=0;orthogonalLoop=1;jettySize=auto;html=1;strokeWidth=3;" parent="1" source="JMT3TiJlHK_bjwa4Ftxb-5" target="JMT3TiJlHK_bjwa4Ftxb-12" edge="1">
          <mxGeometry relative="1" as="geometry" />
        </mxCell>
        <mxCell id="JMT3TiJlHK_bjwa4Ftxb-5" value="Customer&lt;div&gt;Gateway&lt;/div&gt;" style="sketch=0;outlineConnect=0;fontColor=#232F3E;gradientColor=none;fillColor=#8C4FFF;strokeColor=none;dashed=0;verticalLabelPosition=bottom;verticalAlign=top;align=center;html=1;fontSize=12;fontStyle=0;aspect=fixed;pointerEvents=1;shape=mxgraph.aws4.customer_gateway;" parent="1" vertex="1">
          <mxGeometry x="240" y="429" width="78" height="78" as="geometry" />
        </mxCell>
        <mxCell id="JMT3TiJlHK_bjwa4Ftxb-16" value="AWS Cloud" style="points=[[0,0],[0.25,0],[0.5,0],[0.75,0],[1,0],[1,0.25],[1,0.5],[1,0.75],[1,1],[0.75,1],[0.5,1],[0.25,1],[0,1],[0,0.75],[0,0.5],[0,0.25]];outlineConnect=0;gradientColor=none;html=1;whiteSpace=wrap;fontSize=12;fontStyle=0;container=1;pointerEvents=0;collapsible=0;recursiveResize=0;shape=mxgraph.aws4.group;grIcon=mxgraph.aws4.group_aws_cloud;strokeColor=#232F3E;fillColor=none;verticalAlign=top;align=left;spacingLeft=30;fontColor=#232F3E;dashed=0;" parent="1" vertex="1">
          <mxGeometry x="460" y="210" width="750" height="550" as="geometry" />
        </mxCell>
        <mxCell id="JMT3TiJlHK_bjwa4Ftxb-4" value="VPC" style="points=[[0,0],[0.25,0],[0.5,0],[0.75,0],[1,0],[1,0.25],[1,0.5],[1,0.75],[1,1],[0.75,1],[0.5,1],[0.25,1],[0,1],[0,0.75],[0,0.5],[0,0.25]];outlineConnect=0;gradientColor=none;html=1;whiteSpace=wrap;fontSize=12;fontStyle=0;container=1;pointerEvents=0;collapsible=0;recursiveResize=0;shape=mxgraph.aws4.group;grIcon=mxgraph.aws4.group_vpc2;strokeColor=#8C4FFF;fillColor=none;verticalAlign=top;align=left;spacingLeft=30;fontColor=#AAB7B8;dashed=0;" parent="JMT3TiJlHK_bjwa4Ftxb-16" vertex="1">
          <mxGeometry x="100" y="30" width="400" height="500" as="geometry" />
        </mxCell>
        <mxCell id="JMT3TiJlHK_bjwa4Ftxb-18" value="Availability Zone" style="fillColor=none;strokeColor=#147EBA;dashed=1;verticalAlign=top;fontStyle=0;fontColor=#147EBA;whiteSpace=wrap;html=1;" parent="JMT3TiJlHK_bjwa4Ftxb-4" vertex="1">
          <mxGeometry x="30" y="30" width="342" height="450" as="geometry" />
        </mxCell>
        <mxCell id="JMT3TiJlHK_bjwa4Ftxb-2" value="Private subnet" style="points=[[0,0],[0.25,0],[0.5,0],[0.75,0],[1,0],[1,0.25],[1,0.5],[1,0.75],[1,1],[0.75,1],[0.5,1],[0.25,1],[0,1],[0,0.75],[0,0.5],[0,0.25]];outlineConnect=0;gradientColor=none;html=1;whiteSpace=wrap;fontSize=12;fontStyle=0;container=1;pointerEvents=0;collapsible=0;recursiveResize=0;shape=mxgraph.aws4.group;grIcon=mxgraph.aws4.group_security_group;grStroke=0;strokeColor=#00A4A6;fillColor=#E6F6F7;verticalAlign=top;align=left;spacingLeft=30;fontColor=#147EBA;dashed=0;" parent="JMT3TiJlHK_bjwa4Ftxb-4" vertex="1">
          <mxGeometry x="56" y="190" width="130" height="273" as="geometry" />
        </mxCell>
        <mxCell id="JMT3TiJlHK_bjwa4Ftxb-8" value="Inbound Endpoint" style="sketch=0;outlineConnect=0;fontColor=#232F3E;gradientColor=none;fillColor=#8C4FFF;strokeColor=none;dashed=0;verticalLabelPosition=bottom;verticalAlign=top;align=center;html=1;fontSize=12;fontStyle=0;aspect=fixed;pointerEvents=1;shape=mxgraph.aws4.endpoint;" parent="JMT3TiJlHK_bjwa4Ftxb-2" vertex="1">
          <mxGeometry x="26" y="43" width="78" height="78" as="geometry" />
        </mxCell>
        <mxCell id="JMT3TiJlHK_bjwa4Ftxb-17" value="Outbound Endpoint" style="sketch=0;outlineConnect=0;fontColor=#232F3E;gradientColor=none;fillColor=#8C4FFF;strokeColor=none;dashed=0;verticalLabelPosition=bottom;verticalAlign=top;align=center;html=1;fontSize=12;fontStyle=0;aspect=fixed;pointerEvents=1;shape=mxgraph.aws4.endpoint;" parent="JMT3TiJlHK_bjwa4Ftxb-2" vertex="1">
          <mxGeometry x="26" y="163" width="78" height="78" as="geometry" />
        </mxCell>
        <mxCell id="JMT3TiJlHK_bjwa4Ftxb-3" value="Private subnet" style="points=[[0,0],[0.25,0],[0.5,0],[0.75,0],[1,0],[1,0.25],[1,0.5],[1,0.75],[1,1],[0.75,1],[0.5,1],[0.25,1],[0,1],[0,0.75],[0,0.5],[0,0.25]];outlineConnect=0;gradientColor=none;html=1;whiteSpace=wrap;fontSize=12;fontStyle=0;container=1;pointerEvents=0;collapsible=0;recursiveResize=0;shape=mxgraph.aws4.group;grIcon=mxgraph.aws4.group_security_group;grStroke=0;strokeColor=#00A4A6;fillColor=#E6F6F7;verticalAlign=top;align=left;spacingLeft=30;fontColor=#147EBA;dashed=0;" parent="JMT3TiJlHK_bjwa4Ftxb-4" vertex="1">
          <mxGeometry x="222" y="190" width="130" height="273" as="geometry" />
        </mxCell>
        <mxCell id="JMT3TiJlHK_bjwa4Ftxb-7" value="ECS Instance" style="sketch=0;points=[[0,0,0],[0.25,0,0],[0.5,0,0],[0.75,0,0],[1,0,0],[0,1,0],[0.25,1,0],[0.5,1,0],[0.75,1,0],[1,1,0],[0,0.25,0],[0,0.5,0],[0,0.75,0],[1,0.25,0],[1,0.5,0],[1,0.75,0]];outlineConnect=0;fontColor=#232F3E;fillColor=#ED7100;strokeColor=#ffffff;dashed=0;verticalLabelPosition=bottom;verticalAlign=top;align=center;html=1;fontSize=12;fontStyle=0;aspect=fixed;shape=mxgraph.aws4.resourceIcon;resIcon=mxgraph.aws4.ec2;" parent="JMT3TiJlHK_bjwa4Ftxb-3" vertex="1">
          <mxGeometry x="26" y="97.5" width="78" height="78" as="geometry" />
        </mxCell>
        <mxCell id="JMT3TiJlHK_bjwa4Ftxb-20" value="VPC + 2" style="sketch=0;outlineConnect=0;fontColor=#232F3E;gradientColor=none;fillColor=#FF8800;strokeColor=none;dashed=0;verticalLabelPosition=top;verticalAlign=bottom;align=center;html=1;fontSize=12;fontStyle=0;aspect=fixed;pointerEvents=1;shape=mxgraph.aws4.endpoint;labelPosition=center;" parent="JMT3TiJlHK_bjwa4Ftxb-4" vertex="1">
          <mxGeometry x="274" y="70" width="78" height="78" as="geometry" />
        </mxCell>
        <mxCell id="JMT3TiJlHK_bjwa4Ftxb-25" style="edgeStyle=orthogonalEdgeStyle;rounded=0;orthogonalLoop=1;jettySize=auto;html=1;strokeWidth=3;" parent="JMT3TiJlHK_bjwa4Ftxb-4" source="JMT3TiJlHK_bjwa4Ftxb-7" target="JMT3TiJlHK_bjwa4Ftxb-40" edge="1">
          <mxGeometry relative="1" as="geometry">
            <Array as="points">
              <mxPoint x="210" y="327" />
            </Array>
          </mxGeometry>
        </mxCell>
        <mxCell id="JMT3TiJlHK_bjwa4Ftxb-42" style="edgeStyle=orthogonalEdgeStyle;rounded=0;orthogonalLoop=1;jettySize=auto;html=1;strokeWidth=3;" parent="JMT3TiJlHK_bjwa4Ftxb-4" source="JMT3TiJlHK_bjwa4Ftxb-40" target="JMT3TiJlHK_bjwa4Ftxb-20" edge="1">
          <mxGeometry relative="1" as="geometry" />
        </mxCell>
        <mxCell id="JMT3TiJlHK_bjwa4Ftxb-40" value="internal.example.com" style="text;html=1;align=center;verticalAlign=middle;resizable=0;points=[];autosize=1;strokeColor=none;fillColor=none;fontSize=17;fontStyle=1" parent="JMT3TiJlHK_bjwa4Ftxb-4" vertex="1">
          <mxGeometry x="50" y="94" width="190" height="30" as="geometry" />
        </mxCell>
        <mxCell id="JMT3TiJlHK_bjwa4Ftxb-27" value="1" style="text;html=1;align=center;verticalAlign=middle;resizable=0;points=[];autosize=1;strokeColor=#d79b00;fillColor=#ffe6cc;" parent="JMT3TiJlHK_bjwa4Ftxb-4" vertex="1">
          <mxGeometry x="220" y="240" width="30" height="30" as="geometry" />
        </mxCell>
        <mxCell id="JMT3TiJlHK_bjwa4Ftxb-21" style="edgeStyle=orthogonalEdgeStyle;rounded=0;orthogonalLoop=1;jettySize=auto;html=1;strokeWidth=3;" parent="JMT3TiJlHK_bjwa4Ftxb-16" source="JMT3TiJlHK_bjwa4Ftxb-6" target="JMT3TiJlHK_bjwa4Ftxb-17" edge="1">
          <mxGeometry relative="1" as="geometry">
            <Array as="points">
              <mxPoint x="589" y="570" />
              <mxPoint x="300" y="570" />
              <mxPoint x="300" y="422" />
            </Array>
          </mxGeometry>
        </mxCell>
        <mxCell id="JMT3TiJlHK_bjwa4Ftxb-6" value="Router 53 Resolver" style="sketch=0;outlineConnect=0;fontColor=#232F3E;gradientColor=none;fillColor=#8C4FFF;strokeColor=none;dashed=0;verticalLabelPosition=middle;verticalAlign=middle;align=left;html=1;fontSize=12;fontStyle=0;aspect=fixed;pointerEvents=1;shape=mxgraph.aws4.route_53_resolver;labelPosition=right;spacingLeft=5;" parent="JMT3TiJlHK_bjwa4Ftxb-16" vertex="1">
          <mxGeometry x="550" y="440" width="78" height="78" as="geometry" />
        </mxCell>
        <mxCell id="JMT3TiJlHK_bjwa4Ftxb-9" value="Virtual Private Gateway (VGW)&lt;div&gt;VPN Gateway&lt;/div&gt;" style="sketch=0;outlineConnect=0;fontColor=#232F3E;gradientColor=none;fillColor=#8C4FFF;strokeColor=none;dashed=0;verticalLabelPosition=bottom;verticalAlign=top;align=center;html=1;fontSize=12;fontStyle=0;aspect=fixed;pointerEvents=1;shape=mxgraph.aws4.vpn_gateway;" parent="JMT3TiJlHK_bjwa4Ftxb-16" vertex="1">
          <mxGeometry x="-35" y="219" width="78" height="78" as="geometry" />
        </mxCell>
        <mxCell id="JMT3TiJlHK_bjwa4Ftxb-10" value="Private&lt;div&gt;Hosted&lt;/div&gt;&lt;div&gt;Zone&lt;/div&gt;" style="sketch=0;outlineConnect=0;fontColor=#232F3E;gradientColor=none;fillColor=#8C4FFF;strokeColor=none;dashed=0;verticalLabelPosition=bottom;verticalAlign=top;align=center;html=1;fontSize=12;fontStyle=0;aspect=fixed;pointerEvents=1;shape=mxgraph.aws4.hosted_zone;" parent="JMT3TiJlHK_bjwa4Ftxb-16" vertex="1">
          <mxGeometry x="10" y="70" width="78" height="77" as="geometry" />
        </mxCell>
        <mxCell id="JMT3TiJlHK_bjwa4Ftxb-22" style="edgeStyle=orthogonalEdgeStyle;rounded=0;orthogonalLoop=1;jettySize=auto;html=1;strokeWidth=3;" parent="JMT3TiJlHK_bjwa4Ftxb-16" source="JMT3TiJlHK_bjwa4Ftxb-17" target="JMT3TiJlHK_bjwa4Ftxb-9" edge="1">
          <mxGeometry relative="1" as="geometry">
            <Array as="points">
              <mxPoint x="90" y="422" />
              <mxPoint x="90" y="258" />
            </Array>
          </mxGeometry>
        </mxCell>
        <mxCell id="JMT3TiJlHK_bjwa4Ftxb-26" style="edgeStyle=orthogonalEdgeStyle;rounded=0;orthogonalLoop=1;jettySize=auto;html=1;strokeWidth=3;" parent="JMT3TiJlHK_bjwa4Ftxb-16" source="JMT3TiJlHK_bjwa4Ftxb-20" target="JMT3TiJlHK_bjwa4Ftxb-6" edge="1">
          <mxGeometry relative="1" as="geometry" />
        </mxCell>
        <mxCell id="JMT3TiJlHK_bjwa4Ftxb-23" style="edgeStyle=orthogonalEdgeStyle;rounded=0;orthogonalLoop=1;jettySize=auto;html=1;strokeWidth=3;" parent="1" source="JMT3TiJlHK_bjwa4Ftxb-9" target="JMT3TiJlHK_bjwa4Ftxb-5" edge="1">
          <mxGeometry relative="1" as="geometry" />
        </mxCell>
        <mxCell id="JMT3TiJlHK_bjwa4Ftxb-43" value="AWS -&amp;gt; On-premise" style="text;html=1;align=center;verticalAlign=middle;resizable=0;points=[];autosize=1;strokeColor=none;fillColor=none;fontSize=30;fontStyle=1" parent="1" vertex="1">
          <mxGeometry x="425" y="150" width="290" height="50" as="geometry" />
        </mxCell>
      </root>
    </mxGraphModel>
  </diagram>
</mxfile>
